<svg width="177" height="48" viewBox="0 0 177 48" fill="none" xmlns="http://www.w3.org/2000/svg">
<path d="M11.8047 37.4688C8.36719 37.4688 5.57031 36.3438 3.41406 34.0938C1.25781 31.8281 0.179688 28.8047 0.179688 25.0234V24.2266C0.179688 21.7109 0.65625 19.4688 1.60938 17.5C2.57812 15.5156 3.92188 13.9688 5.64062 12.8594C7.375 11.7344 9.25 11.1719 11.2656 11.1719C14.5625 11.1719 17.125 12.2578 18.9531 14.4297C20.7812 16.6016 21.6953 19.7109 21.6953 23.7578V25.5625H4.51562C4.57812 28.0625 5.30469 30.0859 6.69531 31.6328C8.10156 33.1641 9.88281 33.9297 12.0391 33.9297C13.5703 33.9297 14.8672 33.6172 15.9297 32.9922C16.9922 32.3672 17.9219 31.5391 18.7188 30.5078L21.3672 32.5703C19.2422 35.8359 16.0547 37.4688 11.8047 37.4688ZM11.2656 14.7344C9.51562 14.7344 8.04688 15.375 6.85938 16.6562C5.67188 17.9219 4.9375 19.7031 4.65625 22H17.3594V21.6719C17.2344 19.4688 16.6406 17.7656 15.5781 16.5625C14.5156 15.3438 13.0781 14.7344 11.2656 14.7344ZM42.3906 37C42.1406 36.5 41.9375 35.6094 41.7812 34.3281C39.7656 36.4219 37.3594 37.4688 34.5625 37.4688C32.0625 37.4688 30.0078 36.7656 28.3984 35.3594C26.8047 33.9375 26.0078 32.1406 26.0078 29.9688C26.0078 27.3281 27.0078 25.2812 29.0078 23.8281C31.0234 22.3594 33.8516 21.625 37.4922 21.625H41.7109V19.6328C41.7109 18.1172 41.2578 16.9141 40.3516 16.0234C39.4453 15.1172 38.1094 14.6641 36.3438 14.6641C34.7969 14.6641 33.5 15.0547 32.4531 15.8359C31.4062 16.6172 30.8828 17.5625 30.8828 18.6719H26.5234C26.5234 17.4062 26.9688 16.1875 27.8594 15.0156C28.7656 13.8281 29.9844 12.8906 31.5156 12.2031C33.0625 11.5156 34.7578 11.1719 36.6016 11.1719C39.5234 11.1719 41.8125 11.9062 43.4688 13.375C45.125 14.8281 45.9844 16.8359 46.0469 19.3984V31.0703C46.0469 33.3984 46.3438 35.25 46.9375 36.625V37H42.3906ZM35.1953 33.6953C36.5547 33.6953 37.8438 33.3438 39.0625 32.6406C40.2812 31.9375 41.1641 31.0234 41.7109 29.8984V24.6953H38.3125C33 24.6953 30.3438 26.25 30.3438 29.3594C30.3438 30.7188 30.7969 31.7812 31.7031 32.5469C32.6094 33.3125 33.7734 33.6953 35.1953 33.6953ZM67.6094 30.2734C67.6094 29.1016 67.1641 28.1953 66.2734 27.5547C65.3984 26.8984 63.8594 26.3359 61.6562 25.8672C59.4688 25.3984 57.7266 24.8359 56.4297 24.1797C55.1484 23.5234 54.1953 22.7422 53.5703 21.8359C52.9609 20.9297 52.6562 19.8516 52.6562 18.6016C52.6562 16.5234 53.5312 14.7656 55.2812 13.3281C57.0469 11.8906 59.2969 11.1719 62.0312 11.1719C64.9062 11.1719 67.2344 11.9141 69.0156 13.3984C70.8125 14.8828 71.7109 16.7812 71.7109 19.0938H67.3516C67.3516 17.9062 66.8438 16.8828 65.8281 16.0234C64.8281 15.1641 63.5625 14.7344 62.0312 14.7344C60.4531 14.7344 59.2188 15.0781 58.3281 15.7656C57.4375 16.4531 56.9922 17.3516 56.9922 18.4609C56.9922 19.5078 57.4062 20.2969 58.2344 20.8281C59.0625 21.3594 60.5547 21.8672 62.7109 22.3516C64.8828 22.8359 66.6406 23.4141 67.9844 24.0859C69.3281 24.7578 70.3203 25.5703 70.9609 26.5234C71.6172 27.4609 71.9453 28.6094 71.9453 29.9688C71.9453 32.2344 71.0391 34.0547 69.2266 35.4297C67.4141 36.7891 65.0625 37.4688 62.1719 37.4688C60.1406 37.4688 58.3438 37.1094 56.7812 36.3906C55.2188 35.6719 53.9922 34.6719 53.1016 33.3906C52.2266 32.0938 51.7891 30.6953 51.7891 29.1953H56.125C56.2031 30.6484 56.7812 31.8047 57.8594 32.6641C58.9531 33.5078 60.3906 33.9297 62.1719 33.9297C63.8125 33.9297 65.125 33.6016 66.1094 32.9453C67.1094 32.2734 67.6094 31.3828 67.6094 30.2734ZM85.8906 30.6484L91.7969 11.6406H96.4375L86.2422 40.9141C84.6641 45.1328 82.1562 47.2422 78.7188 47.2422L77.8984 47.1719L76.2812 46.8672V43.3516L77.4531 43.4453C78.9219 43.4453 80.0625 43.1484 80.875 42.5547C81.7031 41.9609 82.3828 40.875 82.9141 39.2969L83.875 36.7188L74.8281 11.6406H79.5625L85.8906 30.6484Z" fill="white"/>
<path d="M101.289 37V16.6094H97.5156V11.6406H101.289V10.4688C101.32 7.28125 102.297 4.82812 104.219 3.10938C106.156 1.375 108.883 0.507812 112.398 0.507812C114.508 0.507812 117.07 0.96875 120.086 1.89062L119.102 7.49219C117.57 7.03906 116.383 6.75 115.539 6.625C114.695 6.48438 113.789 6.41406 112.82 6.41406C109.664 6.41406 108.086 7.8125 108.086 10.6094V11.6406H113.078V16.6094H108.086V37H101.289ZM123.25 37H116.453V11.6406H123.25V37ZM135.086 11.6406L135.297 14.5703C137.109 12.3047 139.539 11.1719 142.586 11.1719C145.273 11.1719 147.273 11.9609 148.586 13.5391C149.898 15.1172 150.57 17.4766 150.602 20.6172V37H143.828V20.7812C143.828 19.3438 143.516 18.3047 142.891 17.6641C142.266 17.0078 141.227 16.6797 139.773 16.6797C137.867 16.6797 136.438 17.4922 135.484 19.1172V37H128.711V11.6406H135.086ZM166.305 32.0078C167.555 32.0078 168.57 31.6641 169.352 30.9766C170.133 30.2891 170.539 29.375 170.57 28.2344H176.922C176.906 29.9531 176.438 31.5312 175.516 32.9688C174.594 34.3906 173.328 35.5 171.719 36.2969C170.125 37.0781 168.359 37.4688 166.422 37.4688C162.797 37.4688 159.938 36.3203 157.844 34.0234C155.75 31.7109 154.703 28.5234 154.703 24.4609V24.0156C154.703 20.1094 155.742 16.9922 157.82 14.6641C159.898 12.3359 162.75 11.1719 166.375 11.1719C169.547 11.1719 172.086 12.0781 173.992 13.8906C175.914 15.6875 176.891 18.0859 176.922 21.0859H170.57C170.539 19.7734 170.133 18.7109 169.352 17.8984C168.57 17.0703 167.539 16.6562 166.258 16.6562C164.68 16.6562 163.484 17.2344 162.672 18.3906C161.875 19.5312 161.477 21.3906 161.477 23.9688V24.6719C161.477 27.2812 161.875 29.1562 162.672 30.2969C163.469 31.4375 164.68 32.0078 166.305 32.0078Z" fill="#02EA86"/>
</svg>
