<?xml version="1.0" encoding="utf-8"?>
<!-- Generator: Adobe Illustrator 23.0.0, SVG Export Plug-In . SVG Version: 6.00 Build 0)  -->
<svg version="1.1" id="Camada_1" xmlns="http://www.w3.org/2000/svg" xmlns:xlink="http://www.w3.org/1999/xlink" x="0px" y="0px"
	 viewBox="0 0 422 172" style="enable-background:new 0 0 422 172;" xml:space="preserve">
<style type="text/css">
	.st0{fill:#00E676;}
	.st1{fill:#002171;}
</style>
<path class="st0" d="M258.14,110.02h-10.62V70.4h10.62V110.02z M223.82,110.02V78.16h-5.9V70.4h5.9v-1.83
	c0.05-4.98,1.57-8.81,4.58-11.5c3.03-2.71,7.29-4.07,12.78-4.07c3.3,0,7.3,0.72,12.01,2.16l-1.54,8.75
	c-2.39-0.71-4.25-1.16-5.57-1.36c-1.32-0.22-2.73-0.33-4.25-0.33c-4.93,0-7.4,2.19-7.4,6.56v1.61h7.8v7.76h-7.8v31.86H223.82z"/>
<path class="st0" d="M276.63,70.4l0.33,4.58c2.83-3.54,6.63-5.31,11.39-5.31c4.2,0,7.32,1.23,9.38,3.7
	c2.05,2.47,3.1,6.15,3.15,11.06v25.6h-10.58V84.68c0-2.25-0.49-3.87-1.46-4.87c-0.98-1.03-2.6-1.54-4.87-1.54
	c-2.98,0-5.21,1.27-6.7,3.81v27.94h-10.58V70.4H276.63z"/>
<path class="st0" d="M325.41,102.22c1.95,0,3.54-0.54,4.76-1.61c1.22-1.07,1.86-2.5,1.9-4.28H342c-0.02,2.69-0.76,5.15-2.2,7.4
	c-1.44,2.22-3.42,3.96-5.93,5.2c-2.49,1.22-5.25,1.83-8.28,1.83c-5.66,0-10.13-1.79-13.4-5.38c-3.27-3.61-4.91-8.59-4.91-14.94v-0.7
	c0-6.1,1.62-10.97,4.87-14.61c3.25-3.64,7.7-5.46,13.37-5.46c4.96,0,8.92,1.42,11.9,4.25c3,2.81,4.53,6.56,4.58,11.24h-9.92
	c-0.05-2.05-0.68-3.71-1.9-4.98c-1.22-1.29-2.83-1.94-4.83-1.94c-2.47,0-4.33,0.9-5.6,2.71c-1.25,1.78-1.87,4.69-1.87,8.72v1.1
	c0,4.08,0.62,7.01,1.87,8.79C320.98,101.33,322.87,102.22,325.41,102.22z"/>
<path class="st1" d="M87.32,75.23c-2.73,0-5.03,1-6.88,3c-1.86,1.98-3,4.76-3.44,8.35h19.85v-0.51c-0.2-3.44-1.12-6.1-2.78-7.98
	C92.4,76.19,90.15,75.23,87.32,75.23z M88.16,110.76c-5.37,0-9.74-1.76-13.11-5.27C71.68,101.94,70,97.22,70,91.31v-1.25
	c0-3.93,0.74-7.43,2.23-10.51c1.51-3.1,3.61-5.52,6.3-7.25c2.71-1.76,5.64-2.64,8.79-2.64c5.15,0,9.16,1.7,12.01,5.09
	c2.86,3.39,4.28,8.25,4.28,14.58v2.82H76.78c0.1,3.91,1.23,7.07,3.41,9.49c2.2,2.39,4.98,3.59,8.35,3.59c2.39,0,4.42-0.49,6.08-1.46
	c1.66-0.98,3.11-2.27,4.36-3.88l4.14,3.22C99.79,108.21,94.81,110.76,88.16,110.76z"/>
<path class="st1" d="M124.71,104.86c2.12,0,4.14-0.55,6.04-1.65c1.9-1.1,3.28-2.53,4.14-4.28V90.8h-5.31
	c-8.3,0-12.45,2.43-12.45,7.29c0,2.12,0.71,3.78,2.12,4.98C120.67,104.26,122.49,104.86,124.71,104.86z M135.96,110.02
	c-0.39-0.78-0.71-2.17-0.95-4.17c-3.15,3.27-6.91,4.91-11.28,4.91c-3.91,0-7.12-1.1-9.63-3.3c-2.49-2.22-3.74-5.03-3.74-8.42
	c0-4.13,1.56-7.32,4.69-9.59c3.15-2.29,7.57-3.44,13.26-3.44h6.59v-3.11c0-2.37-0.71-4.25-2.12-5.64c-1.42-1.42-3.5-2.12-6.26-2.12
	c-2.42,0-4.44,0.61-6.08,1.83c-1.64,1.22-2.45,2.7-2.45,4.43h-6.81c0-1.98,0.7-3.88,2.09-5.71c1.42-1.86,3.32-3.32,5.71-4.39
	c2.42-1.07,5.07-1.61,7.95-1.61c4.57,0,8.14,1.15,10.73,3.44c2.59,2.27,3.93,5.41,4.03,9.41v18.24c0,3.64,0.46,6.53,1.39,8.68v0.59
	H135.96z"/>
<path class="st1" d="M173.28,99.51c0-1.83-0.7-3.25-2.09-4.25c-1.37-1.03-3.77-1.9-7.21-2.64c-3.42-0.73-6.14-1.61-8.17-2.64
	c-2-1.03-3.49-2.25-4.47-3.66c-0.95-1.42-1.43-3.1-1.43-5.05c0-3.25,1.37-5.99,4.1-8.24c2.76-2.25,6.27-3.37,10.55-3.37
	c4.49,0,8.13,1.16,10.91,3.48c2.81,2.32,4.21,5.29,4.21,8.9h-6.81c0-1.86-0.79-3.45-2.38-4.8c-1.56-1.34-3.54-2.01-5.93-2.01
	c-2.47,0-4.39,0.54-5.79,1.61c-1.39,1.07-2.09,2.48-2.09,4.21c0,1.64,0.65,2.87,1.94,3.7c1.29,0.83,3.63,1.62,6.99,2.38
	c3.39,0.76,6.14,1.66,8.24,2.71c2.1,1.05,3.65,2.32,4.65,3.81c1.03,1.46,1.54,3.26,1.54,5.38c0,3.54-1.42,6.38-4.25,8.53
	c-2.83,2.12-6.51,3.19-11.02,3.19c-3.17,0-5.98-0.56-8.42-1.68c-2.44-1.12-4.36-2.69-5.75-4.69c-1.37-2.03-2.05-4.21-2.05-6.56h6.78
	c0.12,2.27,1.03,4.08,2.71,5.42c1.71,1.32,3.96,1.98,6.74,1.98c2.56,0,4.61-0.51,6.15-1.54C172.5,102.64,173.28,101.25,173.28,99.51
	z"/>
<path class="st1" d="M197.68,100.1l9.23-29.7h7.25l-15.93,45.74c-2.47,6.59-6.38,9.89-11.76,9.89l-1.28-0.11l-2.53-0.48v-5.49
	l1.83,0.15c2.29,0,4.08-0.46,5.35-1.39c1.29-0.93,2.36-2.62,3.19-5.09l1.5-4.03L180.39,70.4h7.4L197.68,100.1z"/>
</svg>
