<?xml version="1.0" encoding="utf-8"?>
<!-- Generator: Adobe Illustrator 17.0.2, SVG Export Plug-In . SVG Version: 6.00 Build 0)  -->
<!DOCTYPE svg PUBLIC "-//W3C//DTD SVG 1.1//EN" "http://www.w3.org/Graphics/SVG/1.1/DTD/svg11.dtd">
<svg version="1.1" id="_x3C_Layer_x3E_" xmlns="http://www.w3.org/2000/svg" xmlns:xlink="http://www.w3.org/1999/xlink" x="0px"
	 y="0px" width="2497.5px" height="1620px" viewBox="0 0 2497.5 1620" enable-background="new 0 0 2497.5 1620"
	 xml:space="preserve">
<g>
	<g>
		<path fill="#F3FCFE" d="M1225.243,159.954h-0.002c-423.76,0-767.286,343.526-767.286,767.286v555.1h1534.574v-555.1
			C1992.529,503.48,1649.003,159.954,1225.243,159.954z"/>
		<g>
			<g>
				<path opacity="0.8" fill="#D1F5FA" d="M1548.973,569.202c-29.836-31.335-46.649-72.955-46.649-116.705
					c0-62.727,34.411-120.015,89.802-149.506c2.702-1.44,3.726-4.796,2.288-7.499c-1.438-2.701-4.797-3.721-7.497-2.288
					c-59.018,31.422-95.681,92.459-95.681,159.293c0,46.875,18.121,91.449,50.24,124.897l-21.873,23.903l62.753,13.569
					l-14.368-66.444L1548.973,569.202z"/>
				<path opacity="0.8" fill="#D1F5FA" d="M1801.845,326.775l21.875-23.904l-62.752-13.569l14.368,66.444l19.015-20.779
					c29.836,31.334,46.649,72.954,46.649,116.705c0,62.727-34.41,120.014-89.801,149.504c-2.703,1.44-3.727,4.796-2.288,7.499
					c0.997,1.871,2.915,2.939,4.898,2.939c0.879,0,1.77-0.211,2.599-0.651c59.018-31.421,95.678-92.459,95.678-159.292
					C1852.085,404.797,1833.966,360.223,1801.845,326.775z"/>
				<path opacity="0.8" fill="#D1F5FA" d="M1795.219,452.084c0-68.13-55.428-123.557-123.558-123.557
					c-68.129,0-123.556,55.428-123.556,123.557c0,68.129,55.428,123.558,123.556,123.558
					C1739.791,575.641,1795.219,520.213,1795.219,452.084z M1636.69,345.208c-19.544,20.363-32.688,57.551-33.716,101.332h-43.642
					C1561.644,399.154,1593.426,359.401,1636.69,345.208z M1559.332,457.627h43.642c1.028,43.782,14.172,80.97,33.716,101.332
					C1593.426,544.766,1561.644,505.013,1559.332,457.627z M1666.118,564c-27.845-5.46-50.612-51.466-52.058-106.374h52.058V564z
					 M1666.118,446.54h-52.058c1.446-54.908,24.213-100.913,52.058-106.373V446.54z M1783.991,446.54h-43.644
					c-1.026-43.782-14.17-80.97-33.714-101.332C1749.897,359.401,1781.68,399.154,1783.991,446.54z M1677.205,340.167
					c27.847,5.46,50.612,51.466,52.056,106.373h-52.056V340.167z M1677.205,564V457.627h52.056
					C1727.817,512.535,1705.053,558.54,1677.205,564z M1706.633,558.959c19.544-20.362,32.688-57.551,33.714-101.332h43.644
					C1781.68,505.013,1749.897,544.766,1706.633,558.959z"/>
			</g>
			<g>
				<path fill="#62C7F9" d="M1884.326,1150.182c-14.991-22.478-18.782-50.596-11.932-76.732c2.581-9.846,3.954-20.181,3.954-30.837
					c0-28.364-9.739-54.448-26.053-75.1c-17.327-21.934-25.137-49.858-19.969-77.328c1.057-5.614,1.497-11.446,1.247-17.427
					c-1.637-39.17-33.813-71.487-72.977-73.26c-43.927-1.989-80.166,33.037-80.166,76.525c0,4.331,0.362,8.576,1.056,12.707
					c4.671,27.798-2.237,56.663-19.71,78.783c-16.314,20.652-26.053,46.736-26.053,75.1c0,10.665,1.376,21.008,3.961,30.862
					c6.945,26.479,2.522,54.698-12.514,77.575c-17.744,26.994-27.296,59.848-25.105,95.045
					c4.793,77.01,66.981,139.665,143.957,144.974c90.741,6.258,166.295-65.498,166.295-154.9
					C1910.316,1204.36,1900.742,1174.797,1884.326,1150.182z"/>
				<g>
					<rect x="1752.328" y="923.869" fill="#FFF0FB" width="5.415" height="558.472"/>
				</g>
				<g>
					
						<rect x="1780.733" y="957.197" transform="matrix(0.7071 0.7071 -0.7071 0.7071 1227.6029 -968.9603)" fill="#FFF0FB" width="5.414" height="80.341"/>
				</g>
				<g>
					
						<rect x="1668.386" y="1091.503" transform="matrix(0.7071 0.7071 -0.7071 0.7071 1277.2385 -895.1293)" fill="#FFF0FB" width="101.515" height="5.414"/>
				</g>
				<g>
					
						<rect x="1791.503" y="1163.524" transform="matrix(0.7071 0.7071 -0.7071 0.7071 1387.4221 -911.6831)" fill="#FFF0FB" width="5.414" height="110.803"/>
				</g>
			</g>
			<g>
				<path fill="#7FD3E1" d="M2055.249,1186.148c-13.368-20.044-16.748-45.118-10.64-68.424c2.301-8.78,3.526-17.996,3.526-27.498
					c0-25.293-8.685-48.552-23.232-66.969c-15.45-19.559-22.415-44.46-17.807-68.955c0.942-5.006,1.334-10.207,1.112-15.54
					c-1.46-34.929-30.152-63.746-65.076-65.328c-39.171-1.774-71.486,29.46-71.486,68.24c0,3.862,0.323,7.647,0.942,11.331
					c4.165,24.788-1.995,50.528-17.576,70.252c-14.548,18.416-23.232,41.676-23.232,66.969c0,9.51,1.228,18.734,3.532,27.521
					c6.194,23.612,2.25,48.776-11.159,69.175c-15.823,24.072-24.341,53.368-22.387,84.754
					c4.274,68.672,59.729,124.542,128.37,129.277c80.916,5.581,148.289-58.406,148.289-138.128
					C2078.424,1234.459,2069.887,1208.097,2055.249,1186.148z"/>
				<g>
					<rect x="1937.249" y="984.339" fill="#FFF0FB" width="5.415" height="498.002"/>
				</g>
				<g>
					
						<rect x="1962.579" y="1014.058" transform="matrix(0.7071 0.7071 -0.7071 0.7071 1317.9951 -1082.1648)" fill="#FFF0FB" width="5.414" height="71.641"/>
				</g>
				<g>
					
						<rect x="1862.69" y="1133.528" transform="matrix(0.7071 0.7071 -0.7071 0.7071 1362.2782 -1016.3331)" fill="#FFF0FB" width="90.524" height="5.414"/>
				</g>
				<g>
					
						<rect x="1972.182" y="1198.044" transform="matrix(0.7071 0.7071 -0.7071 0.7071 1460.5101 -1031.0891)" fill="#FFF0FB" width="5.414" height="98.806"/>
				</g>
			</g>
			<g>
				<path fill="#7FD3E1" d="M696.697,1142.829c-14.926-22.38-18.7-50.375-11.88-76.397c2.569-9.803,3.937-20.093,3.937-30.702
					c0-28.241-9.696-54.211-25.939-74.773c-17.251-21.838-25.027-49.641-19.881-76.99c1.051-5.589,1.49-11.396,1.241-17.351
					c-1.629-38.999-33.666-71.174-72.659-72.94c-43.735-1.98-79.816,32.893-79.816,76.191c0,4.312,0.36,8.538,1.051,12.651
					c4.651,27.677-2.227,56.416-19.624,78.439c-16.243,20.562-25.939,46.532-25.939,74.773c0,10.618,1.37,20.917,3.944,30.727
					c6.915,26.364,2.512,54.46-12.459,77.236c-17.667,26.877-27.178,59.587-24.996,94.63
					c4.772,76.673,66.689,139.055,143.329,144.341c90.345,6.231,165.568-65.212,165.568-154.224
					C722.573,1196.77,713.041,1167.336,696.697,1142.829z"/>
				<g>
					<rect x="565.263" y="917.503" fill="#FFF0FB" width="5.415" height="556.034"/>
				</g>
				<g>
					
						<rect x="593.544" y="950.686" transform="matrix(0.7071 0.7071 -0.7071 0.7071 875.1551 -131.4493)" fill="#FFF0FB" width="5.414" height="79.99"/>
				</g>
				<g>
					
						<rect x="481.7" y="1084.394" transform="matrix(0.7071 0.7071 -0.7071 0.7071 924.5826 -57.9439)" fill="#FFF0FB" width="101.072" height="5.414"/>
				</g>
				<g>
					
						<rect x="604.267" y="1156.112" transform="matrix(0.7071 0.7071 -0.7071 0.7071 1034.277 -74.4219)" fill="#FFF0FB" width="5.414" height="110.319"/>
				</g>
			</g>
			<g>
				<g>
					<g>
						<path fill="#171754" d="M1563.035,421.729h-507.971c-21.231,0-38.441,17.211-38.441,38.441v983.301
							c0,21.23,17.21,38.441,38.441,38.441h507.971c21.231,0,38.442-17.211,38.442-38.441V460.17
							C1601.476,438.939,1584.265,421.729,1563.035,421.729z"/>
						<path fill="#195052" d="M1633.219,421.729h-507.971c-21.231,0-38.442,17.211-38.442,38.441v983.301
							c0,21.23,17.211,38.441,38.442,38.441h507.971c21.23,0,38.441-17.211,38.441-38.441V460.17
							C1671.661,438.939,1654.45,421.729,1633.219,421.729z"/>
						<path fill="#3B7993" d="M1055.063,1471.401c-15.402,0-27.932-12.53-27.932-27.931v-983.3c0-15.402,12.53-27.932,27.932-27.932
							h507.971c15.402,0,27.932,12.53,27.932,27.932v983.3c0,15.401-12.53,27.931-27.932,27.931H1055.063z"/>
						<g>
							<path fill="#171754" d="M1341.18,492.869h-100.413c-11.245,0-20.393-9.148-20.393-20.393
								c0-11.244,9.148-20.392,20.393-20.392h100.413c11.245,0,20.393,9.148,20.393,20.392
								C1361.573,483.721,1352.425,492.869,1341.18,492.869z M1240.767,459.513c-7.149,0-12.964,5.816-12.964,12.964
								c0,7.149,5.816,12.965,12.964,12.965h100.413c7.149,0,12.964-5.815,12.964-12.965c0-7.148-5.816-12.964-12.964-12.964
								H1240.767z"/>
						</g>
						<g>
							<path fill="#171754" d="M1392.366,493.073c-11.357,0-20.597-9.24-20.597-20.597s9.239-20.596,20.597-20.596
								c11.357,0,20.597,9.239,20.597,20.596S1403.724,493.073,1392.366,493.073z M1392.366,459.309
								c-7.261,0-13.168,5.907-13.168,13.168c0,7.261,5.907,13.169,13.168,13.169c7.261,0,13.169-5.908,13.169-13.169
								C1405.535,465.216,1399.628,459.309,1392.366,459.309z"/>
						</g>
						<path fill="#8AE4F3" d="M1055.739,1356.935V544.11c0-11.704,9.488-21.192,21.192-21.192h464.234
							c11.703,0,21.192,9.488,21.192,21.192v812.824c0,11.704-9.488,21.192-21.192,21.192h-464.234
							C1065.227,1378.127,1055.739,1368.639,1055.739,1356.935z"/>
						<path fill="#94F1FE" d="M1248.192,1348.844h-137.681c-10.39,0-18.812-8.423-18.812-18.812V1192.35
							c0-10.39,8.423-18.813,18.812-18.813h137.681c10.39,0,18.813,8.423,18.813,18.813v137.681
							C1267.005,1340.421,1258.583,1348.844,1248.192,1348.844z"/>
						<path fill="#94F1FE" d="M1512.288,1348.844h-137.681c-10.39,0-18.813-8.423-18.813-18.812V1192.35
							c0-10.39,8.423-18.813,18.813-18.813h137.681c10.39,0,18.813,8.423,18.813,18.813v137.681
							C1531.1,1340.421,1522.677,1348.844,1512.288,1348.844z"/>
						<path fill="#94F1FE" d="M1248.192,1108.568h-137.681c-10.39,0-18.812-8.423-18.812-18.812V952.074
							c0-10.39,8.423-18.813,18.812-18.813h137.681c10.39,0,18.813,8.423,18.813,18.813v137.681
							C1267.005,1100.145,1258.583,1108.568,1248.192,1108.568z"/>
						<path fill="#94F1FE" d="M1512.288,1108.568h-137.681c-10.39,0-18.813-8.423-18.813-18.812V952.074
							c0-10.39,8.423-18.813,18.813-18.813h137.681c10.39,0,18.813,8.423,18.813,18.813v137.681
							C1531.1,1100.145,1522.677,1108.568,1512.288,1108.568z"/>
						<path fill="#94F1FE" d="M1509.518,876.358H1109.43c-9.793,0-17.731-7.938-17.731-17.731V597.618
							c0-9.793,7.938-17.731,17.731-17.731h400.088c9.793,0,17.731,7.938,17.731,17.731v261.009
							C1527.249,868.42,1519.311,876.358,1509.518,876.358z"/>
						<polygon opacity="0.3" fill="#AFC4FF" points="1562.357,1051.587 1235.81,1378.127 1386.259,1378.127 1562.357,1202.032 
													"/>
						<path opacity="0.3" fill="#AFC4FF" d="M1055.739,826.987v186.485l490.043-490.034c-1.488-0.331-3.03-0.519-4.618-0.519
							h-181.351L1055.739,826.987z"/>
						<path opacity="0.4" fill="#786CF2" d="M1076.931,522.919h464.234c9.532,0,17.591,6.294,20.255,14.952
							c-3.049-1.699-6.556-2.675-10.295-2.675h-470.091c-8.469,0-15.334,6.865-15.334,15.334v818.682
							c0,2.172,0.33,4.266,0.937,6.239c-6.497-3.62-10.896-10.551-10.896-18.516V544.11
							C1055.74,532.406,1065.227,522.919,1076.931,522.919z"/>
					</g>
					<g>
						<path fill="#171754" d="M1307.919,1460.652c-16.796,0-30.461-13.665-30.461-30.461c0-16.796,13.665-30.46,30.461-30.46
							c16.796,0,30.461,13.664,30.461,30.46C1338.381,1446.987,1324.716,1460.652,1307.919,1460.652z M1307.919,1407.159
							c-12.7,0-23.032,10.333-23.032,23.032c0,12.7,10.333,23.033,23.032,23.033c12.7,0,23.033-10.333,23.033-23.033
							C1330.952,1417.491,1320.62,1407.159,1307.919,1407.159z"/>
					</g>
				</g>
				<g>
					
						<linearGradient id="SVGID_1_" gradientUnits="userSpaceOnUse" x1="9917.4805" y1="1091.5424" x2="9753.3135" y2="791.5123" gradientTransform="matrix(-1 0 0 1 11050.7529 0)">
						<stop  offset="0" style="stop-color:#CBF8FE"/>
						<stop  offset="0.0025" style="stop-color:#CBF8FE"/>
						<stop  offset="0.6555" style="stop-color:#F1FCFF"/>
						<stop  offset="1" style="stop-color:#FFFDFF"/>
					</linearGradient>
					<path fill="url(#SVGID_1_)" d="M1109.233,1030.968c0-3.02,0-339.441,0-385.18c0-36.178,29.327-65.505,65.504-65.505h325.166
						c-36.177,0-65.504,29.328-65.504,65.505c0,166.495-0.038-294.573-0.038,385.18c0,36.177-29.327,65.505-65.504,65.505
						c0-0.186,7.321,0-325.128,0C1079.906,1096.473,1109.233,1067.145,1109.233,1030.968z"/>
					<g>
						<g>
							<path fill="#B8EFF7" d="M1391.017,640.333h-164.509c-4.103,0-7.428-3.326-7.428-7.428s3.325-7.428,7.428-7.428h164.509
								c4.102,0,7.428,3.326,7.428,7.428S1395.119,640.333,1391.017,640.333z"/>
						</g>
						<g>
							<path fill="#B8EFF7" d="M1202.486,640.67h-63.832c-4.103,0-7.428-3.326-7.428-7.428c0-4.102,3.325-7.428,7.428-7.428h63.832
								c4.103,0,7.428,3.326,7.428,7.428C1209.914,637.344,1206.589,640.67,1202.486,640.67z"/>
						</g>
						<g>
							<path fill="#B8EFF7" d="M1391.017,687.999h-164.509c-4.103,0-7.428-3.326-7.428-7.428c0-4.102,3.325-7.428,7.428-7.428
								h164.509c4.102,0,7.428,3.326,7.428,7.428C1398.445,684.673,1395.119,687.999,1391.017,687.999z"/>
						</g>
						<g>
							<path fill="#B8EFF7" d="M1202.486,688.337h-63.832c-4.103,0-7.428-3.326-7.428-7.428c0-4.102,3.325-7.428,7.428-7.428h63.832
								c4.103,0,7.428,3.326,7.428,7.428C1209.914,685.011,1206.589,688.337,1202.486,688.337z"/>
						</g>
						<g>
							<path fill="#B8EFF7" d="M1391.017,735.665h-164.509c-4.103,0-7.428-3.326-7.428-7.428c0-4.102,3.325-7.428,7.428-7.428
								h164.509c4.102,0,7.428,3.326,7.428,7.428C1398.445,732.339,1395.119,735.665,1391.017,735.665z"/>
						</g>
						<g>
							<path fill="#B8EFF7" d="M1202.486,736.003h-63.832c-4.103,0-7.428-3.326-7.428-7.428s3.325-7.428,7.428-7.428h63.832
								c4.103,0,7.428,3.326,7.428,7.428S1206.589,736.003,1202.486,736.003z"/>
						</g>
						<g>
							<path fill="#B8EFF7" d="M1391.017,783.33h-164.509c-4.103,0-7.428-3.326-7.428-7.428s3.325-7.428,7.428-7.428h164.509
								c4.102,0,7.428,3.326,7.428,7.428S1395.119,783.33,1391.017,783.33z"/>
						</g>
						<g>
							<path fill="#B8EFF7" d="M1202.486,783.669h-63.832c-4.103,0-7.428-3.326-7.428-7.428c0-4.102,3.325-7.428,7.428-7.428h63.832
								c4.103,0,7.428,3.326,7.428,7.428C1209.914,780.343,1206.589,783.669,1202.486,783.669z"/>
						</g>
						<g>
							<path fill="#B8EFF7" d="M1391.017,830.996h-164.509c-4.103,0-7.428-3.326-7.428-7.428c0-4.102,3.325-7.428,7.428-7.428
								h164.509c4.102,0,7.428,3.326,7.428,7.428C1398.445,827.67,1395.119,830.996,1391.017,830.996z"/>
						</g>
						<g>
							<path fill="#B8EFF7" d="M1202.486,831.335h-63.832c-4.103,0-7.428-3.326-7.428-7.428c0-4.103,3.325-7.428,7.428-7.428h63.832
								c4.103,0,7.428,3.326,7.428,7.428C1209.914,828.009,1206.589,831.335,1202.486,831.335z"/>
						</g>
						<g>
							<path fill="#B8EFF7" d="M1391.017,878.662h-164.509c-4.103,0-7.428-3.326-7.428-7.428s3.325-7.428,7.428-7.428h164.509
								c4.102,0,7.428,3.326,7.428,7.428S1395.119,878.662,1391.017,878.662z"/>
						</g>
						<g>
							<path fill="#B8EFF7" d="M1202.486,879h-63.832c-4.103,0-7.428-3.326-7.428-7.428c0-4.102,3.325-7.428,7.428-7.428h63.832
								c4.103,0,7.428,3.326,7.428,7.428C1209.914,875.674,1206.589,879,1202.486,879z"/>
						</g>
						<g>
							<path fill="#B8EFF7" d="M1391.017,926.329h-164.509c-4.103,0-7.428-3.326-7.428-7.428c0-4.102,3.325-7.428,7.428-7.428
								h164.509c4.102,0,7.428,3.326,7.428,7.428C1398.445,923.003,1395.119,926.329,1391.017,926.329z"/>
						</g>
						<g>
							<path fill="#B8EFF7" d="M1202.486,926.666h-63.832c-4.103,0-7.428-3.326-7.428-7.428c0-4.102,3.325-7.428,7.428-7.428h63.832
								c4.103,0,7.428,3.326,7.428,7.428C1209.914,923.34,1206.589,926.666,1202.486,926.666z"/>
						</g>
						<g>
							<path fill="#B8EFF7" d="M1391.017,973.995h-164.509c-4.103,0-7.428-3.326-7.428-7.428c0-4.102,3.325-7.428,7.428-7.428
								h164.509c4.102,0,7.428,3.326,7.428,7.428C1398.445,970.669,1395.119,973.995,1391.017,973.995z"/>
						</g>
						<g>
							<path fill="#B8EFF7" d="M1202.486,974.332h-63.832c-4.103,0-7.428-3.326-7.428-7.428s3.325-7.428,7.428-7.428h63.832
								c4.103,0,7.428,3.326,7.428,7.428S1206.589,974.332,1202.486,974.332z"/>
						</g>
						<g>
							<path fill="#B8EFF7" d="M1391.017,1021.66h-164.509c-4.103,0-7.428-3.326-7.428-7.428s3.325-7.428,7.428-7.428h164.509
								c4.102,0,7.428,3.326,7.428,7.428S1395.119,1021.66,1391.017,1021.66z"/>
						</g>
						<g>
							<path fill="#B8EFF7" d="M1202.486,1021.998h-63.832c-4.103,0-7.428-3.326-7.428-7.428c0-4.102,3.325-7.428,7.428-7.428
								h63.832c4.103,0,7.428,3.326,7.428,7.428C1209.914,1018.672,1206.589,1021.998,1202.486,1021.998z"/>
						</g>
					</g>
					<g>
						<g>
							<g>
								<g>
									<g>
										<polygon fill="#B06350" points="796.998,973.996 778.002,883.783 733.463,911.162 771.436,1009.348 										"/>
										<path fill="#B06350" d="M783.175,983.877l76.031-98.911l42.446-15.083l5.118,4.478v19.751
											c1.46,8.017-20.255,20.466-42.42,24.071l-37.453,74.313L783.175,983.877z"/>
										<path fill="#B06350" d="M854.962,899.722l2.857-21.552c0.385-2.906,2.236-5.409,4.901-6.629l18.866-8.638
											c1.971-0.902,4.28,0.19,4.831,2.287l0,0c0.345,1.311-0.1,2.703-1.141,3.571l-13.863,11.147
											c3.893,12.894-0.257,20.512-9.797,25.912L854.962,899.722z"/>
										<g>
											<path fill="#B06350" d="M906.17,878.636h9.569v-1.135c0-4.747-3.849-8.596-8.596-8.596h-0.973
												c-2.687,0-4.866,2.178-4.866,4.866l0,0C901.304,876.458,903.483,878.636,906.17,878.636z"/>
											<path fill="#B06350" d="M906.17,888.367h9.569v-9.731h-9.569c-2.687,0-4.866,2.179-4.866,4.866l0,0
												C901.304,886.189,903.483,888.367,906.17,888.367z"/>
											<path fill="#B06350" d="M906.17,898.098h9.569v-9.731h-9.569c-2.687,0-4.866,2.178-4.866,4.865l0,0
												C901.304,895.92,903.483,898.098,906.17,898.098z"/>
											<path fill="#B06350" d="M908.478,905.82h-1.335c4.747,0,8.596-3.848,8.596-8.595v0h-7.261
												c-2.374,0-4.298,1.924-4.298,4.298l0,0C904.181,903.895,906.105,905.82,908.478,905.82z"/>
										</g>
									</g>
									<polygon fill="#CA725C" points="782.378,1416.435 782.378,1385.774 743.382,1385.774 746.381,1417.072 									"/>
									<g>
										<polygon fill="#B06350" points="639.33,1299.375 616.632,1327.33 639.305,1353.338 664.82,1329.665 										"/>
										<path fill="#171754" d="M641.093,1355.315L641.093,1355.315c-2.897,5.794-3.631,12.43-2.071,18.717l13.271,53.487
											c1.735,6.993-0.582,14.369-6.005,19.114l-4.635,4.055l-65.025-89.285c10.027-15.588,21.549-29.848,39.211-34.979
											L641.093,1355.315z"/>
										<g>
											<path fill="#FFFFFF" d="M638.285,1367.722c-0.019,0-0.037-0.001-0.056-0.001l-16.501-0.446
												c-1.118-0.031-1.999-0.961-1.969-2.079c0.03-1.099,0.93-1.97,2.023-1.97c0.018,0,0.037,0.001,0.037,0.001l16.519,0.446
												c1.118,0.031,1.999,0.961,1.969,2.079C640.279,1366.851,639.378,1367.722,638.285,1367.722z"/>
										</g>
										<g>
											<path fill="#FFFFFF" d="M626.4,1380.36c-0.879,0-1.689-0.577-1.945-1.465c-0.309-1.074,0.311-2.196,1.385-2.506
												l12.776-3.68c1.073-0.309,2.197,0.311,2.506,1.385c0.309,1.074-0.311,2.197-1.385,2.506l-12.776,3.68
												C626.774,1380.335,626.585,1380.36,626.4,1380.36z"/>
										</g>
										<g>
											<path fill="#FFFFFF" d="M631.887,1392.173c-0.879,0-1.689-0.577-1.945-1.465c-0.309-1.074,0.311-2.197,1.385-2.506
												l10.39-2.994c1.075-0.306,2.197,0.311,2.506,1.385c0.309,1.075-0.311,2.197-1.385,2.506l-10.39,2.994
												C632.262,1392.148,632.073,1392.173,631.887,1392.173z"/>
										</g>
									</g>
									<path fill="#62C7F9" d="M773.798,1085.559l10.19,122.514c0.901,10.832-3.247,21.474-11.241,28.839l-116.387,107.23
										l-30.323-34.872c29.236-48.033,60.281-88.076,87.733-118.239l-57.099-109.774l80.186-8.396L773.798,1085.559z"/>
									<g>
										<path fill="#3A58CC" d="M651.346,1288.856l-3.079-1.874c11.113-18.257,22.117-31.615,29.391-39.605l2.664,2.425
											C673.154,1257.675,662.31,1270.842,651.346,1288.856z"/>
									</g>
									<path fill="#3A58CC" d="M713.769,1191.031l-48.776-93.773l60.917-0.461l46.311,140.599l-52.613,48.474
										c-1.189-6.763-2.31-13.71-3.399-20.972c-1.635-10.908-6.038-21.22-12.823-29.916l-13.057-16.737
										C698.339,1208.457,706.194,1199.354,713.769,1191.031z"/>
									<path fill="#62C7F9" d="M747.487,1089.352l33.237,147.432l6.926,149.814h-46.176
										c-14.235-58.157-18.47-93.249-20.587-147.505l-57.137-89.929c-11.552-20.714-14.111-45.256-7.08-67.907l0,0
										L747.487,1089.352z"/>
									<g>
										<g>
											<rect x="757.964" y="1232.125" fill="#3A58CC" width="14.888" height="3.605"/>
										</g>
										<g>
											<rect x="756.752" y="1243.339" fill="#CF388D" width="16.957" height="3.605"/>
										</g>
									</g>
									<g>
										
											<rect x="714.165" y="1173.457" transform="matrix(0.2199 0.9755 -0.9755 0.2199 1744.6863 168.7095)" fill="#3A58CC" width="105.377" height="3.603"/>
									</g>
									<polygon fill="#CF388D" points="736.125,1400.467 788.983,1400.451 788.997,1386.598 736.139,1386.615 									"/>
									<g>
										<path fill="#171754" d="M783.917,1416.435L783.917,1416.435c0,5.358,3.269,10.173,8.248,12.151l52.294,20.775
											c6.696,2.66,11.345,8.838,12.046,16.009l0.599,6.129l-111.926,0.142c-6.837-17.227-7.624-33.755,0.653-45.31v-9.258
											L783.917,1416.435z"/>
										<g>
											<g>
												<path fill="#FFFFFF" d="M780.627,1442.629c-0.404,0-0.812-0.121-1.167-0.371c-0.913-0.645-1.131-1.909-0.486-2.823
													l9.522-13.483c0.645-0.914,1.91-1.129,2.822-0.485c0.913,0.645,1.131,1.909,0.486,2.823l-9.523,13.483
													C781.888,1442.33,781.262,1442.629,780.627,1442.629z"/>
											</g>
											<g>
												<path fill="#FFFFFF" d="M794.078,1446.042c-0.203,0-0.409-0.031-0.613-0.095c-1.066-0.338-1.656-1.478-1.317-2.543
													l4.024-12.671c0.338-1.067,1.474-1.654,2.543-1.318c1.066,0.338,1.656,1.477,1.317,2.542l-4.024,12.67
													C795.733,1445.492,794.937,1446.042,794.078,1446.042z"/>
											</g>
											<g>
												<path fill="#FFFFFF" d="M806.951,1448.028c-0.203,0-0.409-0.031-0.613-0.095c-1.066-0.338-1.656-1.477-1.318-2.542
													l3.27-10.307c0.338-1.066,1.479-1.657,2.543-1.318c1.066,0.338,1.656,1.476,1.318,2.542l-3.271,10.307
													C808.608,1447.477,807.81,1448.028,806.951,1448.028z"/>
											</g>
										</g>
									</g>
									<polygon fill="#CF388D" points="622.903,1307.144 656.421,1345.516 666.84,1336.387 631.035,1295.63 									"/>
									<path fill="#38589E" d="M759.031,839.593l2.095,1.728c27.151,12.488,26.681,37.302,23.737,60.078
										c-6.601,51.088-15.651,149.099-11.066,184.159c-73.272,12.24-93.525-9.946-119.692,0.059
										c-2.309-62.34,17.958-236.789,27.193-242.946C720.607,816.467,759.031,839.593,759.031,839.593z"/>
									<g>
										<defs>
											<path id="SVGID_2_" d="M759.031,839.593l2.095,1.728c27.151,12.488,26.681,37.302,23.737,60.078
												c-6.601,51.088-15.651,149.099-11.066,184.159c-73.272,12.24-93.525-9.946-119.692,0.059
												c-2.309-62.34,17.958-236.789,27.193-242.946C720.607,816.467,759.031,839.593,759.031,839.593z"/>
										</defs>
										<use xlink:href="#SVGID_2_"  overflow="visible" fill="#224593"/>
										<clipPath id="SVGID_3_">
											<use xlink:href="#SVGID_2_"  overflow="visible"/>
										</clipPath>
										<g clip-path="url(#SVGID_3_)">
											<rect x="577.41" y="809.95" fill="#37579D" width="272.426" height="4.617"/>
											<rect x="577.41" y="836.018" fill="#37579D" width="272.426" height="4.618"/>
											<rect x="577.41" y="862.086" fill="#37579D" width="272.426" height="4.617"/>
											<rect x="577.41" y="888.155" fill="#37579D" width="272.426" height="4.618"/>
											<rect x="577.41" y="914.223" fill="#37579D" width="272.426" height="4.617"/>
											<rect x="577.41" y="940.291" fill="#37579D" width="272.426" height="4.617"/>
											<rect x="577.41" y="966.359" fill="#37579D" width="272.426" height="4.618"/>
											<rect x="577.41" y="992.428" fill="#37579D" width="272.426" height="4.617"/>
											<rect x="577.41" y="1018.496" fill="#37579D" width="272.426" height="4.618"/>
											<rect x="577.41" y="1044.564" fill="#37579D" width="272.426" height="4.617"/>
											<rect x="577.41" y="1070.632" fill="#37579D" width="272.426" height="4.618"/>
											<rect x="577.41" y="1096.701" fill="#37579D" width="272.426" height="4.617"/>
											<rect x="577.41" y="1122.769" fill="#37579D" width="272.426" height="4.617"/>
										</g>
									</g>
									<path fill="#5D5D5D" d="M710.489,831.065c7.473-1.192,14.507-1.083,20.779-0.297c8.692,2.936,17.87,6.526,17.87,6.526
										c9.748,7.696,16.932,16.932,12.314,20.523c-4.618,3.592-16.932,1.026-29.246-4.104c-7.847-3.27-17.979-8.83-24.166-14.159
										C704.914,836.861,706.415,831.714,710.489,831.065z"/>
									<path fill="#CA725C" d="M721.814,795.545l-7.179,32.87c-0.68,3.113,0.267,6.351,2.51,8.613
										c6.023,6.075,19.627,16.949,39.705,16.781c-4.552-16.162,6.414-34.226,6.414-34.226L721.814,795.545z"/>
									<path fill="#CA725C" d="M796.743,724.819l12.062,38.092c1.399,4.418-1.146,9.116-5.612,10.356l-5.68,1.578l4.618,21.55
										l-64.649,36.942l-15.667-24.808l-8.191-81.401l56.183-16.932L796.743,724.819z"/>
									<path fill="#CA725C" d="M731.439,936.567l2.139,39.215c0.096,1.76,1.525,3.143,3.286,3.204
										c28.247,0.965,61.557,6.068,88.102,10.686l-3.848,26.168H716.036c-11.413,0-21.165-8.191-23.176-19.426
										c-4.464-24.936-8.199-46.158-7.196-72.424L731.439,936.567z"/>
									<g>
										<path fill="#5D5D5D" d="M685.517,934.55c-0.031-3.442,0.01-6.951,0.148-10.561l45.775,6.289l0.539,9.874L685.517,934.55z"
											/>
									</g>
									<path opacity="0.4" fill="#CA725C" d="M728.781,806.677l1.375-6.295l33.109,19.201c0,0-5.854,9.655-7.228,21.162
										c-3.685-0.682-7.077-1.64-10.147-2.777C733.183,833.262,725.89,819.915,728.781,806.677z"/>
									<g>
										<circle fill="#171754" cx="691.979" cy="701.817" r="30.593"/>
										<path fill="#171754" d="M783.496,681.137l-46.489,2.749c-16.141,0.954-30.265,11.179-36.213,26.214l-11.991,30.311
											c-3.777,9.548-3.097,20.283,1.855,29.278l26.264,27.2C735.276,798.731,762.683,723.832,783.496,681.137z"/>
										<g>
											<path fill="#4424AF" d="M703.079,711.004l-4.572-1.808c6.274-15.859,21.329-26.758,38.354-27.764l0.29,4.909
												C722.027,687.234,708.653,696.915,703.079,711.004z"/>
										</g>
										<path fill="#171754" d="M782.44,728.124L782.44,728.124c16.243,0,30.094-11.769,32.716-27.799l0.67-4.096
											c1.987-12.15-8.168-22.842-20.405-21.483l-25.43,2.825c-12.346,1.372-23.682,7.47-31.632,17.015l-28.664,34.418
											L782.44,728.124z"/>
										<g>
											<path fill="#4424AF" d="M733.77,703.94l-3.779-3.147c0.815-0.978,1.63-2.011,2.469-3.074
												c4.216-5.345,8.995-11.403,17.237-15.494l2.186,4.404c-7.253,3.6-11.668,9.197-15.563,14.135
												C735.455,701.86,734.612,702.928,733.77,703.94z"/>
										</g>
										<g>
											<path fill="#1D0F4A" d="M792.41,747.912c-4.657-3.948-8.329-3.977-12.28-0.099l-2.838-2.889
												c5.491-5.391,11.457-5.423,17.736-0.099L792.41,747.912z"/>
										</g>
										<path fill="#171754" d="M732.094,777.153l-2.39,27.579c-0.694,8.002,2.744,15.809,9.126,20.687
											c14.493,11.078,33.509,19.462,52.525,19.462c33.094,0,7.011-66.042,7.011-66.042c-3.132-1.793-33.178,2.163-43.953,12.938
											c0-22.319-1.408-50.796,6.996-66.188h-9.105L732.094,777.153z"/>
										<g>
											<g>
												<path fill="#4424AF" d="M775.452,817.904c-1.216,0-2.273-0.902-2.434-2.141l-0.701-5.373
													c-0.176-1.346,0.774-2.581,2.12-2.756c1.347-0.175,2.58,0.774,2.755,2.119l0.701,5.373
													c0.175,1.346-0.774,2.581-2.12,2.756C775.665,817.896,775.558,817.904,775.452,817.904z"/>
											</g>
											<g>
												<path fill="#4424AF" d="M800.518,811.821c-1.216,0-2.273-0.902-2.435-2.14l-0.701-5.373
													c-0.175-1.347,0.773-2.581,2.12-2.756c1.343-0.168,2.58,0.773,2.756,2.119l0.701,5.374
													c0.176,1.346-0.773,2.58-2.119,2.756C800.732,811.814,800.625,811.821,800.518,811.821z"/>
											</g>
											<g>
												<path fill="#4424AF" d="M791.641,817.904c-1.216,0-2.273-0.902-2.434-2.141l-0.701-5.373
													c-0.176-1.346,0.773-2.581,2.12-2.756c1.345-0.175,2.581,0.774,2.756,2.119l0.701,5.373
													c0.176,1.346-0.774,2.581-2.12,2.756C791.854,817.896,791.747,817.904,791.641,817.904z"/>
											</g>
											<g>
												<path fill="#4424AF" d="M799.478,828.434c-1.216,0-2.274-0.902-2.435-2.14l-0.701-5.373
													c-0.175-1.346,0.774-2.58,2.12-2.756c1.348-0.168,2.58,0.773,2.756,2.12l0.701,5.373
													c0.176,1.346-0.773,2.581-2.12,2.756C799.691,828.426,799.584,828.434,799.478,828.434z"/>
											</g>
											<g>
												<path fill="#4424AF" d="M782.818,831.121c-1.216,0-2.273-0.902-2.434-2.141l-0.701-5.373
													c-0.176-1.347,0.773-2.58,2.12-2.756c1.345-0.171,2.58,0.773,2.755,2.119l0.701,5.374
													c0.175,1.348-0.774,2.581-2.12,2.756C783.031,831.113,782.923,831.121,782.818,831.121z"/>
											</g>
											<g>
												<path fill="#4424AF" d="M790.94,836.956c-1.216,0-2.272-0.902-2.434-2.141l-0.701-5.372
													c-0.176-1.347,0.773-2.581,2.12-2.756c1.341-0.169,2.58,0.773,2.756,2.119l0.701,5.372
													c0.175,1.346-0.773,2.581-2.12,2.756C791.154,836.948,791.047,836.956,790.94,836.956z"/>
											</g>
										</g>
										<circle fill="#CA725C" cx="738.444" cy="759.05" r="11.159"/>
										<circle fill="#B06350" cx="737.439" cy="761.861" r="3.976"/>
										<path fill="#FFFFFF" d="M772.95,791.59c1.891,5.288,6.934,9.063,12.867,9.063c6.499,0,11.935-4.539,13.315-10.618
											L772.95,791.59z"/>
										<circle opacity="0.4" fill="#CA725C" cx="782.12" cy="767.918" r="6.927"/>
										<g>
											<rect x="744.053" y="725.399" fill="#4424AF" width="16.431" height="4.918"/>
										</g>
									</g>
									<g>
										<path fill="#FFFFFF" d="M713.729,1112.5c-13.197-2.174-24.734-2.182-34.293-0.022l-0.891-3.951
											c10.069-2.273,22.13-2.28,35.843-0.022L713.729,1112.5z"/>
									</g>
								</g>
							</g>
						</g>
						
							<linearGradient id="SVGID_4_" gradientUnits="userSpaceOnUse" x1="10206.0645" y1="1328.2631" x2="9962.7393" y2="938.9435" gradientTransform="matrix(-1 0 0 1 11050.7529 0)">
							<stop  offset="0" style="stop-color:#CBF8FE"/>
							<stop  offset="0.0025" style="stop-color:#CBF8FE"/>
							<stop  offset="0.6555" style="stop-color:#F1FCFF"/>
							<stop  offset="1" style="stop-color:#FFFDFF"/>
						</linearGradient>
						<path fill="url(#SVGID_4_)" d="M1172.298,1216.477v-49.775h0.038V930.709c0-36.178,29.326-65.505,65.503-65.505H912.674
							c-36.177,0-65.505,29.327-65.505,65.505v285.767H1172.298z"/>
						<path fill="#3B7993" d="M1237.84,865.204c36.177,0,65.508,29.328,65.508,65.505v100.265
							c0.004,36.173,29.33,65.495,65.502,65.499h-65.502l0,0h-131.012V930.709C1172.335,894.531,1201.662,865.204,1237.84,865.204z"
							/>
						<g>
							<g>
								<path fill="#B8EFF7" d="M1139.546,914.198H975.037c-4.103,0-7.428-3.326-7.428-7.428c0-4.102,3.325-7.428,7.428-7.428
									h164.509c4.102,0,7.428,3.326,7.428,7.428C1146.974,910.872,1143.648,914.198,1139.546,914.198z"/>
							</g>
							<g>
								<path fill="#B8EFF7" d="M951.015,914.537h-63.832c-4.103,0-7.428-3.326-7.428-7.428c0-4.103,3.325-7.428,7.428-7.428h63.832
									c4.102,0,7.428,3.326,7.428,7.428C958.443,911.211,955.117,914.537,951.015,914.537z"/>
							</g>
							<g>
								<path fill="#B8EFF7" d="M1139.546,961.864H975.037c-4.103,0-7.428-3.326-7.428-7.428c0-4.102,3.325-7.428,7.428-7.428
									h164.509c4.102,0,7.428,3.326,7.428,7.428C1146.974,958.538,1143.648,961.864,1139.546,961.864z"/>
							</g>
							<g>
								<path fill="#B8EFF7" d="M951.015,962.203h-63.832c-4.103,0-7.428-3.326-7.428-7.428c0-4.102,3.325-7.428,7.428-7.428h63.832
									c4.102,0,7.428,3.326,7.428,7.428C958.443,958.877,955.117,962.203,951.015,962.203z"/>
							</g>
							<g>
								<path fill="#B8EFF7" d="M1139.546,1009.53H975.037c-4.103,0-7.428-3.326-7.428-7.428c0-4.102,3.325-7.428,7.428-7.428
									h164.509c4.102,0,7.428,3.326,7.428,7.428C1146.974,1006.204,1143.648,1009.53,1139.546,1009.53z"/>
							</g>
							<g>
								<path fill="#B8EFF7" d="M951.015,1009.868h-63.832c-4.103,0-7.428-3.326-7.428-7.428c0-4.102,3.325-7.428,7.428-7.428
									h63.832c4.102,0,7.428,3.326,7.428,7.428C958.443,1006.543,955.117,1009.868,951.015,1009.868z"/>
							</g>
							<g>
								<path fill="#B8EFF7" d="M1051.691,1057.196H887.183c-4.103,0-7.428-3.326-7.428-7.428c0-4.103,3.325-7.428,7.428-7.428
									h164.508c4.103,0,7.428,3.326,7.428,7.428C1059.12,1053.87,1055.794,1057.196,1051.691,1057.196z"/>
							</g>
							<g>
								<path fill="#B8EFF7" d="M1051.691,1104.863H887.183c-4.103,0-7.428-3.326-7.428-7.428c0-4.102,3.325-7.428,7.428-7.428
									h164.508c4.103,0,7.428,3.326,7.428,7.428C1059.12,1101.536,1055.794,1104.863,1051.691,1104.863z"/>
							</g>
							<g>
								<path fill="#B8EFF7" d="M1051.691,1152.529H887.183c-4.103,0-7.428-3.326-7.428-7.428c0-4.103,3.325-7.428,7.428-7.428
									h164.508c4.103,0,7.428,3.326,7.428,7.428C1059.12,1149.203,1055.794,1152.529,1051.691,1152.529z"/>
							</g>
							<g>
								<g>
									<path fill="#B8EFF7" d="M1085.218,1139.174h22.059c11.296,0,20.487-9.19,20.487-20.487v-6.569
										c0-11.296-9.191-20.487-20.487-20.487h-6.571c-5.783,0-10.489-4.704-10.489-10.488v-6.571
										c0-5.783,4.706-10.487,10.489-10.487h22.059c2.76,0,4.999-2.238,4.999-4.999c0-2.762-2.239-4.999-4.999-4.999h-22.059
										c-11.296,0-20.487,9.189-20.487,20.485v6.571c0,11.296,9.191,20.485,20.487,20.485h6.571
										c5.783,0,10.489,4.706,10.489,10.489v6.569c0,5.783-4.706,10.489-10.489,10.489h-22.059c-2.76,0-4.999,2.237-4.999,4.999
										C1080.219,1136.936,1082.458,1139.174,1085.218,1139.174z"/>
								</g>
								<g>
									<path fill="#B8EFF7" d="M1104.758,1150.24c2.76,0,4.999-2.237,4.999-4.999v-10.432c0-2.761-2.239-4.999-4.999-4.999
										c-2.76,0-4.999,2.237-4.999,4.999v10.432C1099.759,1148.003,1101.998,1150.24,1104.758,1150.24z"/>
								</g>
								<g>
									<path fill="#B8EFF7" d="M1104.758,1063.253c2.76,0,4.999-2.237,4.999-4.999v-10.235c0-2.761-2.239-4.999-4.999-4.999
										c-2.76,0-4.999,2.238-4.999,4.999v10.235C1099.759,1061.016,1101.998,1063.253,1104.758,1063.253z"/>
								</g>
							</g>
						</g>
					</g>
					<path fill="#B06350" d="M850.715,987.149l22.032,11.948c1.876,1.017,2.616,3.333,1.677,5.25l0,0
						c-0.865,1.767-2.891,2.637-4.768,2.048l-23.424-7.356L850.715,987.149z"/>
					<path fill="#CA725C" d="M824.967,989.671l20.334-2.905c4.139-0.591,8.307,0.871,11.169,3.918l10.198,10.855
						c5.481,5.835,6.811,14.439,3.346,21.656l0,0c-1.911,3.981-6.729,5.601-10.657,3.584l-21.307-10.941h-16.932L824.967,989.671z"
						/>
				</g>
				<g>
					<path fill="#FFF0FB" d="M1155.117,1215.097c-18.183,0-36.82,3.758-54.938,11.978c0,0-125.244,89.95-125.244,121.464
						c0,73.641-59.725,133.376-133.311,133.376H439.956v-98.299l36.702-16.569l101.484-45.809l208.609-94.162
						c18.118-8.22,36.755-11.978,54.874-11.978H1155.117z"/>
					<path fill="#224593" d="M748.853,1383.613v98.299h401.672c73.646,0,133.309-59.73,133.309-133.373
						c0-76.944-63.095-133.438-133.243-133.438c-18.185,0-36.824,3.753-54.943,11.972l-87.881,39.669L748.853,1383.613z"/>
					<rect x="439.956" y="1383.691" fill="#5B7BC1" width="308.898" height="98.221"/>
					<rect x="439.956" y="1464.921" fill="#224593" width="308.898" height="16.991"/>
					<path fill="#97F1FE" d="M809.262,1325.378l-90.612,40.902c-1.12,0.505-2.335,0.767-3.564,0.767H543.926
						c-2.332,0-3.017-3.18-0.891-4.14l90.612-40.902c1.12-0.505,2.335-0.767,3.564-0.767H808.37
						C810.703,1321.237,811.387,1324.418,809.262,1325.378z"/>
					<g>
						<g>
							<g>
								<g>
									<polygon fill="#4867A6" points="824.904,1243.69 779.707,1243.69 815.108,1227.778 860.304,1227.778 									"/>
									<polygon fill="#224593" points="824.904,1253.448 860.304,1237.536 860.304,1227.778 824.904,1243.69 									"/>
									<rect x="779.707" y="1243.69" fill="#5B7BC1" width="45.197" height="9.845"/>
								</g>
							</g>
							<g>
								<g>
									<polygon fill="#4867A6" points="902.877,1243.69 857.68,1243.69 893.08,1227.778 938.277,1227.778 									"/>
									<polygon fill="#224593" points="902.877,1253.448 938.277,1237.536 938.277,1227.778 902.877,1243.69 									"/>
									<rect x="857.68" y="1243.69" fill="#5B7BC1" width="45.197" height="9.845"/>
								</g>
							</g>
							<g>
								<g>
									<polygon fill="#4867A6" points="980.849,1243.69 935.653,1243.69 971.052,1227.778 1016.249,1227.778 									"/>
									<polygon fill="#224593" points="980.849,1253.448 1016.249,1237.536 1016.249,1227.778 980.849,1243.69 									"/>
									<rect x="935.653" y="1243.69" fill="#5B7BC1" width="45.197" height="9.845"/>
								</g>
							</g>
						</g>
						<g>
							<g>
								<g>
									<polygon fill="#4867A6" points="768.47,1269.36 723.274,1269.36 758.674,1253.448 803.87,1253.448 									"/>
									<polygon fill="#224593" points="768.47,1279.119 803.87,1263.207 803.87,1253.448 768.47,1269.36 									"/>
									<rect x="723.274" y="1269.36" fill="#5B7BC1" width="45.196" height="9.845"/>
								</g>
							</g>
							<g>
								<g>
									<polygon fill="#4867A6" points="846.443,1269.36 801.246,1269.36 836.647,1253.448 881.843,1253.448 									"/>
									<polygon fill="#224593" points="846.443,1279.119 881.843,1263.207 881.843,1253.448 846.443,1269.36 									"/>
									<rect x="801.246" y="1269.36" fill="#5B7BC1" width="45.197" height="9.845"/>
								</g>
							</g>
							<g>
								<g>
									<polygon fill="#4867A6" points="924.416,1269.36 879.219,1269.36 914.619,1253.448 959.816,1253.448 									"/>
									<polygon fill="#224593" points="924.416,1279.119 959.816,1263.207 959.816,1253.448 924.416,1269.36 									"/>
									<rect x="879.219" y="1269.36" fill="#5B7BC1" width="45.197" height="9.845"/>
								</g>
							</g>
						</g>
						<g>
							<g>
								<g>
									<polygon fill="#4867A6" points="712.037,1295.031 666.84,1295.031 702.24,1279.119 747.437,1279.119 									"/>
									<polygon fill="#224593" points="712.037,1304.79 747.437,1288.878 747.437,1279.119 712.037,1295.031 									"/>
									<rect x="666.84" y="1295.031" fill="#5B7BC1" width="45.197" height="9.845"/>
								</g>
							</g>
							<g>
								<g>
									<polygon fill="#4867A6" points="790.009,1295.031 744.813,1295.031 780.213,1279.119 825.41,1279.119 									"/>
									<polygon fill="#224593" points="790.009,1304.79 825.41,1288.878 825.41,1279.119 790.009,1295.031 									"/>
									<rect x="744.813" y="1295.031" fill="#5B7BC1" width="45.196" height="9.845"/>
								</g>
							</g>
							<g>
								<g>
									<polygon fill="#4867A6" points="867.982,1295.031 822.785,1295.031 858.186,1279.119 903.383,1279.119 									"/>
									<polygon fill="#224593" points="867.982,1304.79 903.383,1288.878 903.383,1279.119 867.982,1295.031 									"/>
									<rect x="822.785" y="1295.031" fill="#5B7BC1" width="45.197" height="9.845"/>
								</g>
							</g>
						</g>
					</g>
					<circle fill="#4867A6" cx="1142.118" cy="1351.58" r="69.29"/>
					<circle fill="#224593" cx="1142.118" cy="1351.58" r="26.246"/>
				</g>
				<g>
					<g>
						<path fill="#FEC972" d="M1828.359,1481.912h155.275c5.795,0,10.492-4.697,10.492-10.492v-21.815
							c0-5.795-4.697-10.492-10.492-10.492h-155.275c-5.795,0-10.492,4.697-10.492,10.492v21.815
							C1817.867,1477.215,1822.564,1481.912,1828.359,1481.912z"/>
						<path fill="#FF9549" d="M1828.359,1470.126h155.275c5.795,0,10.492-4.698,10.492-10.492v11.786
							c0,5.795-4.697,10.492-10.492,10.492h-155.275c-5.795,0-10.492-4.698-10.492-10.492v-11.786
							C1817.867,1465.428,1822.564,1470.126,1828.359,1470.126z"/>
						<path fill="#FF9549" d="M1828.359,1439.113h22.972c-5.794,0-10.492,4.697-10.492,10.492v21.815
							c0,5.795,4.697,10.492,10.492,10.492h-22.972c-5.795,0-10.492-4.698-10.492-10.492v-21.815
							C1817.867,1443.811,1822.564,1439.113,1828.359,1439.113z"/>
						<path fill="#FFFFFF" d="M1928.744,1471.42v-21.815c0-5.795-4.698-10.492-10.492-10.492h26.506
							c5.795,0,10.492,4.697,10.492,10.492v21.815c0,5.795-4.697,10.492-10.492,10.492h-26.506
							C1924.046,1481.912,1928.744,1477.214,1928.744,1471.42z"/>
					</g>
					<g>
						<path fill="#FEC972" d="M1652.099,1481.912h155.275c5.795,0,10.492-4.697,10.492-10.492v-21.815
							c0-5.795-4.697-10.492-10.492-10.492h-155.275c-5.794,0-10.492,4.697-10.492,10.492v21.815
							C1641.607,1477.215,1646.305,1481.912,1652.099,1481.912z"/>
						<path fill="#FF9549" d="M1652.099,1470.126h155.275c5.795,0,10.492-4.698,10.492-10.492v11.786
							c0,5.795-4.698,10.492-10.492,10.492h-155.275c-5.795,0-10.492-4.698-10.492-10.492v-11.786
							C1641.607,1465.428,1646.305,1470.126,1652.099,1470.126z"/>
						<path fill="#FF9549" d="M1652.099,1439.113h22.972c-5.795,0-10.492,4.697-10.492,10.492v21.815
							c0,5.795,4.698,10.492,10.492,10.492h-22.972c-5.795,0-10.492-4.698-10.492-10.492v-21.815
							C1641.607,1443.811,1646.305,1439.113,1652.099,1439.113z"/>
						<path fill="#FFFFFF" d="M1768.909,1471.42v-21.815c0-5.795-4.697-10.492-10.492-10.492h26.506
							c5.795,0,10.492,4.697,10.492,10.492v21.815c0,5.795-4.697,10.492-10.492,10.492h-26.506
							C1764.212,1481.912,1768.909,1477.214,1768.909,1471.42z"/>
					</g>
					<g>
						<path fill="#FEC972" d="M1652.099,1442.409h155.275c5.795,0,10.492-4.697,10.492-10.492v-21.815
							c0-5.795-4.697-10.492-10.492-10.492h-155.275c-5.794,0-10.492,4.697-10.492,10.492v21.815
							C1641.607,1437.712,1646.305,1442.409,1652.099,1442.409z"/>
						<path fill="#FF9549" d="M1652.099,1430.623h155.275c5.795,0,10.492-4.698,10.492-10.492v11.786
							c0,5.794-4.698,10.492-10.492,10.492h-155.275c-5.795,0-10.492-4.698-10.492-10.492v-11.786
							C1641.607,1425.925,1646.305,1430.623,1652.099,1430.623z"/>
						<path fill="#FF9549" d="M1652.099,1399.61h22.972c-5.795,0-10.492,4.697-10.492,10.492v21.815
							c0,5.794,4.698,10.492,10.492,10.492h-22.972c-5.795,0-10.492-4.698-10.492-10.492v-21.815
							C1641.607,1404.308,1646.305,1399.61,1652.099,1399.61z"/>
						<path fill="#FFFFFF" d="M1733.985,1431.917v-21.815c0-5.795-4.698-10.492-10.492-10.492h26.506
							c5.795,0,10.492,4.697,10.492,10.492v21.815c0,5.794-4.697,10.492-10.492,10.492h-26.506
							C1729.288,1442.409,1733.985,1437.711,1733.985,1431.917z"/>
					</g>
					<g>
						<path fill="#FF9549" d="M1802.349,1361.729v12.648c0,37.034,30.049,67.042,67.084,67.042h20.708
							c25.627,0,46.376-20.75,46.376-46.335v-50.922c0-27.321-22.154-49.476-49.517-49.476h-17.566
							c-27.28,0-50.799,16.285-61.256,39.721l10.085,7.151h-12.813C1803.424,1347.923,1802.349,1354.702,1802.349,1361.729z"/>
						<path fill="#FEC972" d="M1827.232,1361.729v12.648c0,18.517,7.523,35.257,19.674,47.409
							c12.111,12.152,28.892,19.634,47.409,19.634c37.034,0,67.042-30.008,67.042-67.042v-7.316h-5.291l5.291-3.431v-1.901
							c0-37.034-30.008-67.042-67.042-67.042C1857.281,1294.686,1827.232,1324.694,1827.232,1361.729z"/>
						<path fill="#FFFFFF" d="M1929.267,1431.511l-92.844-103.537c4.289-7.329,9.909-13.763,16.56-18.977l94.797,105.715
							C1942.72,1421.409,1936.449,1427.109,1929.267,1431.511z"/>
						<path fill="#FFFFFF" d="M1827.232,1374.377v-12.648c0-1.319,0.048-2.626,0.123-3.927l74.584,83.173
							c-2.504,0.283-5.044,0.443-7.624,0.443c-2.736,0-5.429-0.182-8.08-0.5l-58.984-65.777
							C1827.249,1374.885,1827.232,1374.633,1827.232,1374.377z"/>
						<g>
							<path fill="#FF9549" d="M1839.632,1374.363v-12.622c0-30.144,24.527-54.669,54.674-54.669
								c30.146,0,54.673,24.525,54.673,54.669v12.622c0,30.148-24.527,54.673-54.673,54.673
								C1864.159,1429.036,1839.632,1404.511,1839.632,1374.363z M1847.898,1361.74v12.622c0,25.587,20.818,46.406,46.407,46.406
								c25.589,0,46.406-20.82,46.406-46.406v-12.622c0-25.587-20.818-46.403-46.406-46.403
								C1868.716,1315.338,1847.898,1336.154,1847.898,1361.74z"/>
						</g>
						<polygon fill="#FF9549" points="1894.305,1382.541 1915.722,1396.838 1908.744,1372.05 1928.959,1356.099 1903.229,1355.076 
							1894.305,1330.922 1885.381,1355.076 1859.651,1356.099 1879.866,1372.05 1872.887,1396.838 						"/>
					</g>
				</g>
			</g>
			<g>
				<path fill="#6551FB" d="M1279.941,400.284c1.405-13.929,10.52-25.888,23.579-30.935l49.103-18.978l22.109-0.485
					c14.628,0.321,29.089,3.183,42.737,8.457l28.475,11.006c13.059,5.047,22.174,17.006,23.579,30.935l2.509,24.873h-97.3h-97.3
					L1279.941,400.284z"/>
				<path fill="#FFFDFF" d="M1402.864,367.527c0.001-0.049,0.003-0.098,0.004-0.147c0.215-8.21-5.885-15.269-14.023-16.378
					c-4.672-0.637-9.383-1.013-14.113-1.116l-22.109,0.484l-21.202,8.194c-0.17,1.991-0.192,4.003-0.124,5.973
					c0.811,23.263,12.165,45.911,30.187,60.619h5.657C1387.291,412.829,1402.182,391.089,1402.864,367.527z"/>
				<path fill="#D481A6" d="M1382.948,306.882l5.379,49.751c1.655,15.304-10.335,28.66-25.728,28.66
					c-13.215,0-24.308-9.957-25.728-23.096l-5.981-55.315H1382.948z"/>
				<g>
					<path fill="#171754" d="M1322.048,261.455c-7.914-4.418-17.305-4.736-25.404-0.846c-4.796,2.303-8.953,9.319-9.184,15.597
						c-0.543,14.723,3.803,22.015,10.964,25.025c5.779,2.43,8.19-1.978,13.028,4.558c2.333,3.152,4.719,6.428,6.569,10.01
						c2.487,4.818,7.337,6.951,11.707,4.944l0,0c0.809-9.619,1.619-19.237,2.428-28.856c0.706-8.391,1.187-17.766-3.175-24.313
						C1327.165,264.851,1324.665,262.916,1322.048,261.455z"/>
					<path fill="#F2A5C7" d="M1345.108,276.588c1.021-0.187,2.029-0.451,3.039-0.696c15.568-3.781,30.874,8.167,32.416,25.74
						c1.137,12.949-0.226,26.291-6.417,38.532c-11.86,23.452-33.648,31.877-44.437,34.082
						c-21.829,4.462-42.867-60.171-30.413-99.055L1345.108,276.588z"/>
					<path fill="#171754" d="M1278.978,253.589c11.776-1.545,21.174-6.186,28.256-13.843c5.169-5.589,11.415-9.783,18.398-11.273
						c6.492-1.386,13.209-1.281,19.754,0.376c22.726,5.751,38.908,28.859,38.908,55.559v3.883l-4.33-1.855
						c-18.633-7.982-38.762-10.23-58.387-6.52l-5.815,1.099c-13.328,2.519-26.979-1.202-37.895-10.33
						C1272.595,266.277,1273.195,257.05,1278.978,253.589z"/>
					<path fill="#171754" d="M1386.347,240.436c-9.783-5.971-21.392-6.401-31.405-1.144c-5.929,3.113-11.067,12.597-11.354,21.083
						c-0.671,19.902,4.701,29.758,13.554,33.827c7.145,3.284,10.125-2.673,16.106,6.162c2.884,4.261,5.834,8.688,8.12,13.531
						c3.075,6.512,9.07,9.395,14.472,6.682l0,0c1.001-13.001,2.001-26.003,3.001-39.004c0.873-11.342,1.468-24.015-3.925-32.865
						C1392.673,245.026,1389.582,242.411,1386.347,240.436z"/>
					<g>
						
							<rect x="1355.973" y="300.022" transform="matrix(-0.9542 0.2993 -0.2993 -0.9542 2760.3672 182.4348)" fill="#FFFDFF" width="20.483" height="5.108"/>
					</g>
					<path fill="#F2A5C7" d="M1366.39,306.799c-1.039,6.944,5.289,14.682,12.147,13.174c5.366-1.181,8.538-7.232,8.208-12.716
						c-0.085-1.412-0.354-2.823-0.907-4.126c-2.254-5.307-9.693-7.573-14.523-4.423
						C1368.59,300.485,1366.871,303.581,1366.39,306.799z"/>
				</g>
				<g>
					<g>
						<circle fill="#AEA7FA" cx="1306.001" cy="310.873" r="14.454"/>
						<path fill="#FFFDFF" d="M1288.993,310.873c0-9.379,7.63-17.01,17.009-17.01c9.378,0,17.008,7.631,17.008,17.01
							c0,9.378-7.63,17.008-17.008,17.008C1296.623,327.881,1288.993,320.251,1288.993,310.873z M1294.101,310.873
							c0,6.561,5.339,11.899,11.901,11.899c6.562,0,11.9-5.338,11.9-11.899c0-6.562-5.338-11.901-11.9-11.901
							C1299.44,298.972,1294.101,304.312,1294.101,310.873z"/>
					</g>
					<g opacity="0.3">
						<path fill="#FFFDFF" d="M1302.548,322.591c0.671,0,1.37-0.177,2.023-0.533c1.013-0.552,1.756-1.414,2.353-2.108l5.475-6.349
							c1.341-1.557,2.38-2.201,3.187-1.985c1.024,0.282,1.36,2.073,0.976,3.486c-0.163,0.6-0.39,1.189-0.615,1.776
							c-0.522,1.364-1.061,2.774-0.974,4.379l2.549-0.14c-0.057-1.06,0.364-2.161,0.809-3.326c0.256-0.669,0.51-1.338,0.695-2.021
							c0.728-2.678-0.107-5.885-2.764-6.616c-2.75-0.751-4.965,1.812-5.8,2.779l-5.475,6.35c-0.509,0.591-1.035,1.202-1.639,1.531
							c-0.452,0.244-0.985,0.29-1.267,0.102c-0.611-0.405-0.368-1.83,0.145-3.061c1.867-4.482,4.255-8.748,7.098-12.679
							c0.599-0.83,1.846-2.558,1.103-4.351c-0.731-1.766-2.88-2.246-4.461-1.679c-1.383,0.502-2.319,1.58-3.07,2.447l-4.631,5.336
							c-0.46,0.529-0.907,1.012-1.331,1.104c-0.229,0.052-0.468-0.035-0.706-0.249c-0.427-0.382-0.695-1.055-0.639-1.601
							c0.165-1.569,0.856-3.266,1.72-4.224l-1.898-1.711c-1.214,1.348-2.141,3.573-2.361,5.67c-0.142,1.362,0.437,2.841,1.473,3.77
							c0.862,0.771,1.903,1.064,2.954,0.843c1.288-0.281,2.149-1.271,2.717-1.927l4.631-5.336c0.588-0.677,1.254-1.444,2.01-1.718
							c0.477-0.171,1.11-0.041,1.232,0.254c0.197,0.476-0.537,1.495-0.813,1.878c-2.957,4.09-5.443,8.529-7.385,13.192
							c-1.17,2.807-0.879,5.058,0.801,6.173C1301.219,322.41,1301.87,322.591,1302.548,322.591z"/>
					</g>
					<g>
						<circle fill="#AEA7FA" cx="1342.97" cy="310.873" r="14.454"/>
						<path fill="#FFFDFF" d="M1325.961,310.873c0-9.379,7.63-17.01,17.009-17.01c9.378,0,17.008,7.631,17.008,17.01
							c0,9.378-7.63,17.008-17.008,17.008C1333.591,327.881,1325.961,320.251,1325.961,310.873z M1331.069,310.873
							c0,6.561,5.339,11.899,11.901,11.899c6.561,0,11.899-5.338,11.899-11.899c0-6.562-5.338-11.901-11.899-11.901
							C1336.408,298.972,1331.069,304.312,1331.069,310.873z"/>
					</g>
					<g opacity="0.3">
						<path fill="#FFFDFF" d="M1347.97,324.922c0.223-3.64,1.953-7.04,3.627-10.328c1-1.963,1.944-3.816,2.535-5.659
							c0.435-1.355-0.02-2.791-1.162-3.659c-1.171-0.892-2.722-0.95-3.944-0.146c-2.392,1.57-4.288,3.94-6.122,6.231
							c-0.542,0.677-1.075,1.345-1.61,1.974l-0.172,0.204c-0.646,0.762-1.256,1.481-1.992,1.854
							c-0.613,0.312-1.374,0.277-1.666-0.075c-0.316-0.382-0.262-1.187,0.165-2.392c0.926-2.622,2.115-5.163,3.536-7.556
							c0.826-1.392,2.363-3.981,0.615-6.196c-0.906-1.149-2.498-1.665-4.048-1.31c-1.495,0.339-6.083,1.762-7.505,3.786l2.09,1.469
							c0.651-0.928,3.804-2.271,5.978-2.764c0.592-0.133,1.184,0.028,1.479,0.401c0.551,0.697,0.1,1.783-0.805,3.309
							c-1.506,2.537-2.767,5.231-3.749,8.01c-0.482,1.366-0.978,3.357,0.278,4.872c1.206,1.46,3.32,1.47,4.787,0.724
							c1.196-0.605,2.042-1.601,2.786-2.48l0.17-0.2c0.551-0.65,1.101-1.337,1.659-2.033c1.71-2.135,3.477-4.344,5.53-5.692
							c0.47-0.311,0.88-0.044,0.995,0.042c0.165,0.126,0.42,0.403,0.277,0.846c-0.529,1.647-1.428,3.413-2.38,5.282
							c-1.709,3.356-3.646,7.16-3.9,11.331L1347.97,324.922z"/>
					</g>
					<g>
						<rect x="1320.438" y="307.356" fill="#FFFDFF" width="8.109" height="5.109"/>
					</g>
				</g>
				<g>
					<path fill="#171754" d="M1374.049,340.349h-25.28c-2.013,0-3.909,0.947-5.117,2.558l-4.408,5.874
						c-2.738,3.648-7.032,5.795-11.593,5.795h-0.454c-6.533,0-12.258-4.37-13.981-10.672l0,0c-0.76-2.781-3.287-4.71-6.171-4.71
						h-5.941c6.36,21.36,17.378,37.347,28.606,35.053C1340.469,372.047,1362.168,363.658,1374.049,340.349z"/>
					<g>
						<path fill="#171754" d="M1326.329,331.919h-16.442c-6.239,0-11.296,5.057-11.296,11.296l0,0h16.442
							C1321.271,343.215,1326.329,338.158,1326.329,331.919L1326.329,331.919z"/>
						<path fill="#171754" d="M1323.467,331.919h20.729c6.239,0,11.296,5.057,11.296,11.296l0,0h-20.729
							C1328.524,343.215,1323.467,338.158,1323.467,331.919L1323.467,331.919z"/>
					</g>
				</g>
				<path fill="#171754" d="M1367.43,334.383l-4.605,11.027l8.435-0.143c1.012-1.619,1.982-3.312,2.887-5.103
					c2.35-4.646,4.001-9.452,5.087-14.334C1374.039,326.24,1369.461,329.517,1367.43,334.383z"/>
				<g>
					<path fill="#D481A6" d="M1271.308,425.484L1271.308,425.484c1.535,3.077,5.066,4.598,8.357,3.6l23.885-7.245
						c3.317-1.006,4.932-4.754,3.385-7.856l0,0c-1.11-2.225-3.555-3.451-6.002-3.011l-24.564,4.424
						C1271.739,416.23,1269.208,421.276,1271.308,425.484z"/>
					<path fill="#F2A5C7" d="M1285.126,404.902L1285.126,404.902c-3.156,0-5.852,2.277-6.381,5.389l-3.835,22.586
						c-0.533,3.137,1.884,5.999,5.066,5.999l0,0c2.282,0,4.291-1.506,4.932-3.696l6.431-21.989
						C1292.55,409.048,1289.443,404.902,1285.126,404.902z"/>
					<path fill="#F2A5C7" d="M1265.556,402.263L1265.556,402.263c-3.28,0-6.08,2.369-6.623,5.603l-4.623,27.512
						c-0.54,3.211,1.935,6.136,5.191,6.136l0,0c2.366,0,4.44-1.578,5.072-3.857l7.454-26.883
						C1273.214,406.495,1269.996,402.263,1265.556,402.263z"/>
					<path fill="#F2A5C7" d="M1275.781,402.263L1275.781,402.263c-3.279,0-6.079,2.369-6.623,5.603l-4.623,27.512
						c-0.54,3.211,1.935,6.136,5.191,6.136l0,0c2.365,0,4.44-1.578,5.072-3.857l7.454-26.883
						C1283.439,406.495,1280.221,402.263,1275.781,402.263z"/>
					<path fill="#F2A5C7" d="M1257.029,405.232L1257.029,405.232c-2.973,0-5.512,2.144-6.009,5.075l-3.612,21.271
						c-0.502,2.954,1.775,5.65,4.771,5.65l0,0c2.15,0,4.041-1.418,4.645-3.481l6.056-20.707
						C1264.021,409.136,1261.095,405.232,1257.029,405.232z"/>
				</g>
				<g>
					<path fill="#D481A6" d="M1415.701,425.484L1415.701,425.484c-1.535,3.077-5.066,4.598-8.357,3.6l-23.885-7.245
						c-3.317-1.006-4.932-4.754-3.385-7.856l0,0c1.11-2.225,3.554-3.451,6.002-3.011l24.564,4.424
						C1415.269,416.23,1417.8,421.276,1415.701,425.484z"/>
					<path fill="#F2A5C7" d="M1401.882,404.902L1401.882,404.902c3.156,0,5.852,2.277,6.381,5.389l3.835,22.586
						c0.533,3.137-1.884,5.999-5.066,5.999l0,0c-2.282,0-4.291-1.506-4.932-3.696l-6.43-21.989
						C1394.458,409.048,1397.565,404.902,1401.882,404.902z"/>
					<path fill="#F2A5C7" d="M1421.452,402.263L1421.452,402.263c3.28,0,6.08,2.369,6.623,5.603l4.623,27.512
						c0.539,3.211-1.935,6.136-5.191,6.136l0,0c-2.366,0-4.441-1.578-5.073-3.857l-7.454-26.883
						C1413.794,406.495,1417.012,402.263,1421.452,402.263z"/>
					<path fill="#F2A5C7" d="M1411.227,402.263L1411.227,402.263c3.28,0,6.08,2.369,6.623,5.603l4.623,27.512
						c0.54,3.211-1.935,6.136-5.191,6.136l0,0c-2.365,0-4.44-1.578-5.072-3.857l-7.454-26.883
						C1403.569,406.495,1406.787,402.263,1411.227,402.263z"/>
					<path fill="#F2A5C7" d="M1429.979,405.232L1429.979,405.232c2.973,0,5.512,2.144,6.009,5.075l3.612,21.271
						c0.501,2.954-1.775,5.65-4.771,5.65l0,0c-2.15,0-4.041-1.418-4.645-3.481l-6.056-20.707
						C1422.987,409.136,1425.914,405.232,1429.979,405.232z"/>
				</g>
			</g>
		</g>
		<g>
			<path fill="#7FD3E1" d="M724.585,303.613v-3.322c0-10.091,8.229-18.272,18.38-18.272h26.773c11.074,0,20.051-8.925,20.051-19.933
				l0,0c0-11.009-8.977-19.933-20.051-19.933H635.524c-11.997,0-21.722,9.668-21.722,21.594l0,0
				c0,11.926,9.725,21.594,21.722,21.594h37.546c10.152,0,18.381,8.181,18.381,18.272l0,0c0,10.091-8.229,18.272-18.381,18.272
				h-94.471c-11.421,0-20.679,9.204-20.679,20.557l0,0c0,11.353,9.258,20.557,20.679,20.557h244.06
				c11.421,0,20.679-9.203,20.679-20.557l0,0c0-11.353-9.258-20.557-20.679-20.557h-79.693
				C732.814,321.885,724.585,313.705,724.585,303.613z"/>
			<path fill="#7FD3E1" d="M499.991,321.885h14.964c11.353,0,20.557,9.203,20.557,20.557l0,0c0,11.353-9.204,20.557-20.557,20.557
				h-14.964c-11.353,0-20.557-9.203-20.557-20.557l0,0C479.434,331.089,488.638,321.885,499.991,321.885z"/>
		</g>
		<g>
			<g>
				<g>
					<path fill="#B8EFF7" d="M914.257,738.614c-26.364,0-47.813-21.451-47.813-47.814s21.448-47.814,47.813-47.814
						c26.364,0,47.813,21.451,47.813,47.814S940.621,738.614,914.257,738.614z M914.257,652.863
						c-20.919,0-37.938,17.017-37.938,37.937s17.02,37.937,37.938,37.937c20.919,0,37.938-17.017,37.938-37.937
						S935.176,652.863,914.257,652.863z"/>
				</g>
				<g>
					<g>
						<g>
							<path fill="#B8EFF7" d="M916.147,714.859h-12.691v-4.915h12.691c3.558,0,6.453-2.895,6.453-6.453v-3.78
								c0-3.558-2.895-6.453-6.453-6.453h-3.78c-6.268,0-11.368-5.099-11.368-11.367v-3.78c0-6.268,5.099-11.368,11.368-11.368
								h12.691v4.915h-12.691c-3.559,0-6.453,2.895-6.453,6.453v3.78c0,3.558,2.895,6.453,6.453,6.453h3.78
								c6.268,0,11.368,5.099,11.368,11.368v3.78C927.515,709.759,922.416,714.859,916.147,714.859z"/>
						</g>
					</g>
					<g>
						<g>
							<path fill="#B8EFF7" d="M914.697,721.227c-1.357,0-2.457-1.1-2.457-2.457v-6.003c0-1.357,1.1-2.457,2.457-2.457
								s2.457,1.1,2.457,2.457v6.003C917.155,720.127,916.055,721.227,914.697,721.227z"/>
						</g>
					</g>
					<g>
						<g>
							<path fill="#B8EFF7" d="M914.697,671.177c-1.357,0-2.457-1.1-2.457-2.457v-5.888c0-1.358,1.1-2.457,2.457-2.457
								s2.457,1.1,2.457,2.457v5.888C917.155,670.078,916.055,671.177,914.697,671.177z"/>
						</g>
					</g>
				</g>
			</g>
			<g>
				<g>
					<path fill="#B8EFF7" d="M888.908,574.883c-24.719,0-44.829-20.11-44.829-44.83c0-24.72,20.11-44.833,44.829-44.833
						c24.72,0,44.83,20.113,44.83,44.833C933.738,554.773,913.628,574.883,888.908,574.883z M888.908,495.097
						c-19.275,0-34.955,15.682-34.955,34.956c0,19.275,15.68,34.954,34.955,34.954c19.275,0,34.956-15.679,34.956-34.954
						C923.864,510.779,908.182,495.097,888.908,495.097z"/>
				</g>
				<g>
					<g>
						<g>
							<path fill="#B8EFF7" d="M890.667,552.607h-11.808c-1.357,0-2.457-1.1-2.457-2.457c0-1.357,1.1-2.457,2.457-2.457h11.808
								c3.217,0,5.834-2.617,5.834-5.833v-3.518c0-3.216-2.617-5.833-5.834-5.833h-3.517c-5.927,0-10.748-4.821-10.748-10.748
								v-3.517c0-5.926,4.821-10.747,10.748-10.747h11.808c1.357,0,2.457,1.1,2.457,2.457c0,1.357-1.1,2.457-2.457,2.457H887.15
								c-3.217,0-5.834,2.617-5.834,5.833v3.517c0,3.216,2.617,5.834,5.834,5.834h3.517c5.927,0,10.748,4.822,10.748,10.747v3.518
								C901.415,547.786,896.593,552.607,890.667,552.607z"/>
						</g>
					</g>
					<g>
						<g>
							<path fill="#B8EFF7" d="M889.318,558.533c-1.358,0-2.457-1.1-2.457-2.457v-5.586c0-1.357,1.1-2.457,2.457-2.457
								c1.357,0,2.457,1.1,2.457,2.457v5.586C891.775,557.432,890.675,558.533,889.318,558.533z"/>
						</g>
					</g>
					<g>
						<g>
							<path fill="#B8EFF7" d="M889.318,511.965c-1.358,0-2.457-1.1-2.457-2.457v-5.479c0-1.358,1.1-2.458,2.457-2.458
								c1.357,0,2.457,1.1,2.457,2.458v5.479C891.775,510.866,890.675,511.965,889.318,511.965z"/>
						</g>
					</g>
				</g>
			</g>
			<g>
				<g>
					<path fill="#B8EFF7" d="M952.947,437.866c-18.84,0-34.167-15.329-34.167-34.17c0-18.839,15.327-34.168,34.167-34.168
						s34.168,15.329,34.168,34.168C987.115,422.537,971.787,437.866,952.947,437.866z M952.947,379.404
						c-13.395,0-24.293,10.896-24.293,24.291s10.898,24.294,24.293,24.294c13.396,0,24.294-10.898,24.294-24.294
						S966.343,379.404,952.947,379.404z"/>
				</g>
				<g>
					<g>
						<g>
							<path fill="#B8EFF7" d="M954.236,420.88h-8.652c-1.357,0-2.457-1.1-2.457-2.457c0-1.358,1.1-2.457,2.457-2.457h8.652
								c1.994,0,3.618-1.623,3.618-3.618v-2.577c0-1.995-1.623-3.618-3.618-3.618h-2.578c-4.704,0-8.532-3.827-8.532-8.533v-2.577
								c0-4.705,3.827-8.532,8.532-8.532h8.652c1.357,0,2.457,1.1,2.457,2.457c0,1.357-1.1,2.457-2.457,2.457h-8.652
								c-1.994,0-3.617,1.623-3.617,3.618v2.577c0,1.995,1.623,3.618,3.617,3.618h2.578c4.704,0,8.532,3.827,8.532,8.532v2.577
								C962.768,417.053,958.941,420.88,954.236,420.88z"/>
						</g>
					</g>
					<g>
						<g>
							<path fill="#B8EFF7" d="M953.248,425.222c-1.357,0-2.457-1.1-2.457-2.457v-4.093c0-1.358,1.1-2.457,2.457-2.457
								c1.358,0,2.457,1.1,2.457,2.457v4.093C955.705,424.122,954.605,425.222,953.248,425.222z"/>
						</g>
					</g>
					<g>
						<g>
							<path fill="#B8EFF7" d="M953.248,391.1c-1.357,0-2.457-1.1-2.457-2.457v-4.015c0-1.357,1.1-2.457,2.457-2.457
								c1.358,0,2.457,1.1,2.457,2.457v4.015C955.705,390.001,954.605,391.1,953.248,391.1z"/>
						</g>
					</g>
				</g>
			</g>
		</g>
		<g>
			<path fill="#7FD3E1" d="M1872.642,642.327h14.965c11.353,0,20.557,9.203,20.557,20.557l0,0c0,11.353-9.204,20.557-20.557,20.557
				h-14.965c-11.353,0-20.557-9.204-20.557-20.557l0,0C1852.085,651.531,1861.289,642.327,1872.642,642.327z"/>
			<path fill="#7FD3E1" d="M1809.543,710.549h85.084c11.353,0,20.557,9.204,20.557,20.557l0,0c0,11.353-9.203,20.557-20.557,20.557
				h-85.084c-11.353,0-20.557-9.203-20.557-20.557l0,0C1788.986,719.753,1798.19,710.549,1809.543,710.549z"/>
		</g>
	</g>
	
		<line fill="none" stroke="#292992" stroke-width="9.8747" stroke-linecap="round" stroke-miterlimit="10" x1="415.381" y1="1487.522" x2="2025.368" y2="1487.522"/>
</g>
</svg>
